<svg width="35" height="35" viewBox="0 0 35 35" fill="none" xmlns="http://www.w3.org/2000/svg">
<rect width="35" height="35" rx="5" fill="#F5F5F5"/>
<path d="M9.5 13H11.1667H24.5" stroke="#F56166" stroke-width="2" stroke-linecap="round" stroke-linejoin="round"/>
<path d="M13.6666 13V11.3333C13.6666 10.8913 13.8422 10.4674 14.1548 10.1548C14.4673 9.84227 14.8913 9.66667 15.3333 9.66667H18.6666C19.1087 9.66667 19.5326 9.84227 19.8451 10.1548C20.1577 10.4674 20.3333 10.8913 20.3333 11.3333V13M22.8333 13V24.6667C22.8333 25.1087 22.6577 25.5326 22.3451 25.8452C22.0326 26.1577 21.6087 26.3333 21.1666 26.3333H12.8333C12.3913 26.3333 11.9673 26.1577 11.6548 25.8452C11.3422 25.5326 11.1666 25.1087 11.1666 24.6667V13H22.8333Z" stroke="#F56166" stroke-width="2" stroke-linecap="round" stroke-linejoin="round"/>
</svg>
