<svg width="35" height="35" viewBox="0 0 35 35" fill="none" xmlns="http://www.w3.org/2000/svg">
<rect width="35" height="35" rx="5" fill="#F5F5F5"/>
<path d="M16.1666 11.3333H10.3333C9.89127 11.3333 9.46734 11.5089 9.15478 11.8215C8.84222 12.134 8.66663 12.558 8.66663 13V24.6667C8.66663 25.1087 8.84222 25.5326 9.15478 25.8452C9.46734 26.1577 9.89127 26.3333 10.3333 26.3333H22C22.442 26.3333 22.8659 26.1577 23.1785 25.8452C23.491 25.5326 23.6666 25.1087 23.6666 24.6667V18.8333" stroke="#5AB359" stroke-width="2" stroke-linecap="round" stroke-linejoin="round"/>
<path d="M22.4166 10.0833C22.7481 9.75181 23.1978 9.56557 23.6666 9.56557C24.1355 9.56557 24.5851 9.75181 24.9166 10.0833C25.2481 10.4149 25.4344 10.8645 25.4344 11.3333C25.4344 11.8022 25.2481 12.2518 24.9166 12.5833L17 20.5L13.6666 21.3333L14.5 18L22.4166 10.0833Z" stroke="#5AB359" stroke-width="2" stroke-linecap="round" stroke-linejoin="round"/>
</svg>
